<svg width="12" height="12" viewBox="0 0 12 12" fill="none" xmlns="http://www.w3.org/2000/svg">
<path fill-rule="evenodd" clip-rule="evenodd" d="M3 5.99999C3 5.90053 3.03951 5.80515 3.10984 5.73482C3.18016 5.66449 3.27554 5.62499 3.375 5.62499H7.71975L6.1095 4.01549C6.03908 3.94507 5.99953 3.84957 5.99953 3.74999C5.99953 3.6504 6.03908 3.5549 6.1095 3.48449C6.17991 3.41407 6.27542 3.37451 6.375 3.37451C6.47458 3.37451 6.57009 3.41407 6.6405 3.48449L8.8905 5.73449C8.92542 5.76932 8.95313 5.8107 8.97203 5.85626C8.99094 5.90182 9.00067 5.95066 9.00067 5.99999C9.00067 6.04931 8.99094 6.09815 8.97203 6.14371C8.95313 6.18927 8.92542 6.23065 8.8905 6.26549L6.6405 8.51549C6.57009 8.5859 6.47458 8.62546 6.375 8.62546C6.27542 8.62546 6.17991 8.5859 6.1095 8.51549C6.03908 8.44507 5.99953 8.34957 5.99953 8.24999C5.99953 8.1504 6.03908 8.0549 6.1095 7.98449L7.71975 6.37499H3.375C3.27554 6.37499 3.18016 6.33548 3.10984 6.26515C3.03951 6.19482 3 6.09944 3 5.99999Z" fill="#C7C5C9"/>
</svg>
