<svg width="60" height="60" viewBox="0 0 60 60" fill="none" xmlns="http://www.w3.org/2000/svg">
<path d="M47.3665 52.0427C50.7754 49.0375 53.3889 45.4781 54.9098 41.1663C55.6519 39.0625 56.1097 36.8962 56.2857 34.6685C56.4625 32.4315 56.4598 30.202 56.0938 27.9827C55.646 25.2671 54.804 22.6771 53.5662 20.2192C52.2818 17.6688 50.6105 15.3898 48.6308 13.3402C47.6068 12.2801 46.507 11.2953 45.3125 10.4278C44.9653 10.1757 44.6474 9.9202 44.3928 9.56932C42.769 7.33091 40.7862 5.47265 38.4486 3.99251C36.9573 3.04817 35.3857 2.2795 33.688 1.78004C33.1898 1.63346 33.0715 1.7446 33.1805 2.26437C33.2356 2.52697 33.2881 2.79015 33.3379 3.0538C33.5609 4.23329 33.7298 5.421 33.8851 6.61105C33.9236 6.90616 33.8009 7.01667 33.525 7.05601C33.162 7.10777 32.7914 7.1545 32.4449 7.26739C29.9916 8.06669 27.9308 9.40818 26.3379 11.4896C24.9832 13.2599 24.333 15.2309 24.2522 17.4245C24.223 18.2195 24.3672 19.0017 24.433 19.7899C24.5849 21.6083 23.9039 23.1921 22.8755 24.6139C22.0979 25.6888 22.314 26.0954 23.3781 26.7538C23.5219 26.8428 23.6796 26.9118 23.8366 26.976C24.1589 27.1076 24.4135 27.3024 24.6213 27.5951C25.0303 28.1713 25.6134 28.4893 26.3209 28.4923C26.6614 28.4937 26.8071 28.5993 26.9266 28.9187C27.3366 30.0144 28.3504 30.5404 29.5356 30.4228C30.6106 30.316 31.6007 29.9576 32.5901 29.5739C33.685 29.1494 34.7567 28.6575 35.9057 28.389C38.1587 27.8623 39.9142 28.965 40.426 31.2194C40.7034 32.4415 40.6656 33.6644 40.3741 34.8761C39.3447 39.1553 36.6802 42.0952 32.7938 43.9839C30.3115 45.1903 27.6658 45.5171 24.9304 45.2411C22.4558 44.9914 20.1663 44.2189 18.1468 42.7657C12.9934 39.0572 11.1785 33.1792 12.8072 27.2453C14.0397 22.7546 16.8209 19.3788 20.5999 16.7639C21.0382 16.4607 21.4889 16.1755 21.9337 15.882C21.7892 15.5575 21.5726 15.5197 21.2902 15.6038C20.7198 15.7739 20.1581 15.967 19.6132 16.2059C15.7046 17.9193 12.683 20.6511 10.3895 24.2251C7.18037 29.2258 6.08762 34.6567 7.10302 40.5026C7.78122 44.4072 9.58509 47.7673 12.2251 50.6869C14.4744 53.1745 17.2044 54.9956 20.2691 56.33C22.6237 57.3553 25.0945 57.9601 27.6354 58.245C29.1248 58.412 30.6274 58.3879 32.13 58.2808C34.1301 58.1381 36.0853 57.7784 37.9957 57.1917C41.452 56.1303 44.5619 54.4236 47.3665 52.0427Z" fill="url(#paint0_linear_43_47)"/>
<path d="M6.36597 23.8116C8.4063 17.8045 12.174 13.2169 17.7628 10.1117C17.5555 9.94704 17.434 10.012 17.3215 10.0564C16.9132 10.2171 16.4992 10.367 16.1032 10.5544C12.9816 12.0319 10.433 14.2025 8.34441 16.9419C5.28933 20.949 3.80236 25.4988 3.61546 30.4997C3.53209 32.7304 3.78899 34.9332 4.30044 37.1035C4.50611 37.9762 4.72887 38.8482 5.11081 39.6741C5.19411 39.4274 5.16548 39.1844 5.13677 38.9406L5.13574 38.9319C5.05981 38.2869 4.95844 37.6434 4.91707 36.9962C4.78239 34.8892 4.776 32.7845 4.98315 30.6777C5.21082 28.3622 5.6233 26.0895 6.36597 23.8116Z" fill="url(#paint1_linear_43_47)"/>
<path d="M26.1349 5.7651C26.8916 6.41348 27.4946 7.20072 28.1328 7.9577C28.5086 8.40349 28.8453 8.3686 29.1559 7.90092C29.619 7.2037 29.9004 7.09579 30.7221 7.30019C31.0777 7.38864 31.4272 7.23436 31.5188 6.93387C31.6241 6.58825 31.3755 6.45917 31.133 6.3333L31.1253 6.32935C29.3752 5.4206 27.5146 4.86324 25.5641 4.60418C25.3601 4.57708 25.1209 4.49964 24.8717 4.72958C25.292 5.07208 25.6915 5.39765 26.1349 5.7651Z" fill="url(#paint2_linear_43_47)"/>
<path d="M31.7378 15.7775C32.0163 15.7512 32.2366 15.5766 32.6483 15.6512C30.2413 16.983 28.5078 18.7686 27.6293 21.3123C27.417 20.7309 27.4376 20.1617 27.5707 19.5919C28.0091 17.7144 29.348 16.7051 31.0246 16.0264C31.2473 15.9363 31.4784 15.8666 31.7378 15.7775Z" fill="#020203"/>
<path d="M37.5798 6.50593C36.757 6.92616 36.7688 6.92148 36.4383 6.08599C35.9614 4.8807 35.3306 3.76391 34.4654 2.78903C34.4205 2.73844 34.3546 2.69556 34.3724 2.60479C34.5008 2.51869 34.5863 2.63363 34.6668 2.68991C35.8502 3.51718 36.8621 4.51542 37.6592 5.72405C37.8348 5.99016 37.9594 6.25768 37.5798 6.50593Z" fill="#020203"/>
<defs>
<linearGradient id="paint0_linear_43_47" x1="3.59998" y1="1.72061" x2="60.1054" y2="54.3904" gradientUnits="userSpaceOnUse">
<stop stop-color="#163C9F"/>
<stop offset="0.351436" stop-color="#3151C2"/>
<stop offset="1" stop-color="#9A26E1"/>
</linearGradient>
<linearGradient id="paint1_linear_43_47" x1="3.59998" y1="1.72061" x2="60.1054" y2="54.3904" gradientUnits="userSpaceOnUse">
<stop stop-color="#163C9F"/>
<stop offset="0.351436" stop-color="#3151C2"/>
<stop offset="1" stop-color="#9A26E1"/>
</linearGradient>
<linearGradient id="paint2_linear_43_47" x1="3.59998" y1="1.72061" x2="60.1054" y2="54.3904" gradientUnits="userSpaceOnUse">
<stop stop-color="#163C9F"/>
<stop offset="0.351436" stop-color="#3151C2"/>
<stop offset="1" stop-color="#9A26E1"/>
</linearGradient>
</defs>
</svg>
